<svg xmlns="http://www.w3.org/2000/svg" width="562" height="720"><path d="M41.315 31.102c-4.345 1.257-9.052 6.208-10.297 10.83-.7 2.599-.948 105.375-.774 320.198.254 314.367.269 316.391 2.256 319.689 1.1 1.826 3.575 4.301 5.5 5.5l3.5 2.181h479l3.5-2.181c1.925-1.199 4.4-3.674 5.5-5.5 1.985-3.293 2.002-5.324 2.258-262.684.181-183.232-.06-260.579-.823-263.5-.947-3.63-8.367-11.422-60.757-63.806-51.226-51.221-60.244-59.824-63.678-60.745-5.108-1.37-360.447-1.353-365.185.018M61.998 61.5l-.25 298.25L61.5 658h439V175H398.296l-3.306-2.25c-1.818-1.237-4.247-3.52-5.398-5.072-2.043-2.757-2.104-4.031-2.592-54.5l-.5-51.678H61.998m55.003 186.619c-11.672 4.676-13.394 20.537-3.002 27.631l3.297 2.25h327.408l3.297-2.25c9.374-6.399 9.217-19.089-.324-26.158l-2.823-2.092-162.677-.191c-106.723-.126-163.537.153-165.176.81m.618 61.909c-11.99 3.616-14.278 20.649-3.721 27.702l3.398 2.27h327.408l3.297-2.25c9.374-6.399 9.217-19.088-.324-26.158l-2.823-2.092-162.177-.17c-89.459-.094-163.469.219-165.058.698m0 62c-11.99 3.616-14.278 20.649-3.721 27.702l3.398 2.27h327.408l3.398-2.27c9.299-6.212 9.09-19.088-.425-26.138l-2.823-2.092-162.177-.17c-89.459-.094-163.469.219-165.058.698m-.119 62.178c-12.068 4.217-14.193 20.449-3.602 27.524l3.398 2.27h327.408l3.398-2.27c10.789-7.207 8.437-23.426-4.001-27.591-4.613-1.545-322.174-1.48-326.601.067m-1.53 63.044c-11.262 5.689-12.21 20.365-1.729 26.755 3.217 1.962 5.376 1.988 166.861 1.991l163.602.004 3.398-2.27c6.784-4.532 8.965-14.324 4.64-20.832-1.242-1.869-4.262-4.41-6.712-5.648l-4.454-2.25H120.424l-4.454 2.25m.024 61.988c-11.674 5.897-12.21 20.617-.991 27.208 3.489 2.049 3.873 2.054 165.997 2.054 160.702 0 162.538-.022 165.895-2 5.09-2.998 7.376-6.694 7.858-12.709.502-6.246-2.014-10.864-7.756-14.237-3.484-2.046-4.117-2.055-165.011-2.316l-161.514-.262-4.478 2.262" fill="undefined" fill-rule="evenodd"/></svg>